<?xml version="1.0" encoding="UTF-8"?>
<svg id="Layer_1" xmlns="http://www.w3.org/2000/svg" width="461.88" height="812.07" viewBox="0 0 461.88 812.07">
  <defs>
    <style>
      .cls-1 {
        fill: none;
        stroke: #231f20;
        stroke-miterlimit: 10;
        stroke-width: 4px;
      }
    </style>
  </defs>
  <path class="cls-1" d="M27.6,306.51s-10.9,29.32-17.67,28.57c0,0,5.64,19.93,0,21.81,0,0,17.29,65.04,17.67,72.56s-.38,15.79,4.51,22.18l-1.5,10.9-4.14-1.88s17.29,77.07,10.53,83.84c0,0,8.27.75,8.27,5.64,0,0,2.63,12.78-4.14,11.28,0,0-.38-10.9-6.02-13.16,0,0-3.38-2.26-.38,8.65,0,0,16.54,34.96,8.27,36.84,0,0-9.77,24.06,15.79,68.42,0,0,10.15,22.18,8.27,32.33,0,0-5.55-1.88.23,4.89,0,0,3.15,17.29,11.05,25.56,0,0-.75,31.2,37.97,63.91,0,0,3.01-1.88,4.89,2.26,0,0,13.16,0,20.3,7.14,0,0-1.13,3.01,5.64,0,0,0,2.63,5.68,17.29,1.34,0,0,2.26,9.19,22.93,5.05,0,0,6.02,13.16,19.55-1.5,0,0,6.02-3.38,12.41,0,0,0,17.29-22.93,29.7-19.17,0,0,9.02-8.27,52.63-15.04,0,0,10.15-2.26,14.29-12.78,0,0,0-4.51,4.51,4.14,0,0,21.05-.75,67.3-40.98,0,0,24.81-11.65,42.48-39.47,0,0,15.41-22.56,7.89-20.3,0,0-2.26-.75,2.07-8.27s27.26-64.29,17.11-82.33c0,0,7.89-63.91-10.53-78.2,0,0-.38,8.65-4.51,12.78,0,0,.75-12.41-2.26-12.41,0,0-1.32,2.26-4.89,2.63,0,0,3.2-36.28-7.89-37.03,0,0-1.88-2.63-2.82,3.57,0,0-.56-12.22-8.65-16.35,0,0-2.63-14.29-11.28-4.51,0,0-4.14,1.88-4.14-3.38,0,0,4.7-18.05,18.42,3.57l6.96.94,14.1,24.81-.38,20.3s7.89,5.83,8.46-2.63,0-18.42-19.36-47.93c0,0-21.62-13.16-19.36-19.17,0,0,.94-4.14-4.51-1.5,0,0-11.65,2.44-6.58-17.11,0,0-6.14-5.01-4.45-15.92,0,0-.06-3.26-4.01,1.44,0,0-3.57-.94-1.41-5.17,0,0-12.12.38-14.47-21.34,0,0-12.69,15.6-15.7-14.38,0,0,1.03-6.11,3.48,1.13,0,0,6.67,29.23,7.61,1.03,0,0-8.74-21.43-8.36-30.64,0,0,.91-5.2-10.12-5.45,0,0-3.51-17.29,1.25-10.28,0,0,6.77,13.03,5.01,4.51,0,0-4.01-38.6-17.04-26.82,0,0-5.01-.5-3.01,6.02,0,0-3.51,5.01-16.79,0,0,0-7.02-11.53-11.28-6.52,0,0-8.77,1.5-2.76-4.26,0,0,4.76-5.01,11.28,1.5,0,0,6.02,5.09,3.01-3.35s5.01-7.93,4.51-3.42c0,0,2.01,6.87,4.01-3.21,0,0-2.26-7.82-8.52-8.82,0,0,13.78-8.02-7.27-19.05,0,0,2.01-11.78-12.28-19.05,0,0,2.01-10.03-12.53-15.54,0,0-10.53-20.05-14.04-21.05,0,0-11.78,18.55-13.28,2.76,0,0,4.51-9.27-9.02-15.04,0,0,8.7-1.41,16.29,6.02,0,0-12.28-15.54-10.53-22.81,0,0-8.27,5.01-7.52-2.01,0,0-13.78-5.01-2.26-6.02,0,0,9.52,6.02,4.01-4.01,0,0-6.77-9.77-8.77-17.04,0,0-4.26-9.77-5.76,0,0,0-1.75,5.51-10.53-8.52,0,0-3.26-5.51,3.01,0,0,0,11.53,1.75.5-8.77s-9.02-7.77-9.02-7.77c0,0-78.7-55.39-97.25-93.24,0,0-35.34-1.75-15.54,8.27,0,0,12.28-.25,28.32,22.06,0,0,11.53,12.03,18.8,17.8,0,0-17.54-5.01-34.34-30.83,0,0-.5-3.51-11.78-2.51,0,0-2.26-3.51-10.03-3.26,0,0-3.26-4.75-2.26-11.65,0,0-30.33-1.39-34.84,5.13,0,0-14.54,7.52-4.01,14.54,0,0,.5,10.78,9.52,9.52,0,0,15.04,13.78,27.07,17.04,0,0,7.77,2.51-1.75-6.52,0,0-6.77-9.52,10.03,7.27,0,0,15.79,9.02,6.52-3.51,0,0-9.02-20.8,35.09,15.79,0,0,8.52,5.26,18.05,3.51,0,0,7.02-2.76,10.28,2.26,0,0,12.78,6.26,24.31,12.78,0,0-38.6-12.53-38.35-8.52,0,0-31.09,14.63-31.05,3.5,0-.52.07-1.1.22-1.75,0,0-1-10.78-17.8-12.03,0,0-21.81-15.29-27.32-11.03,0,0,21.55,9.52,29.07,24.06,0,0-9.27,3.01-11.03,9.77,0,0-34.59,3.01-6.77,26.57,0,0,3.26,17.54-12.53,60.15,0,0-7.52-1-18.55,12.53,0,0-4.01,3.01-9.52,2.76,0,0,6.52,6.77,3.01,26.07,0,0,6.02,10.53,5.51,26.82,0,0-5.01,28.82-16.79,29.83,0,0,2.26,17.04-2.51,20.8,0,0-.25,33.08-8.52,38.85,0,0-6.02,2.01,1.75,21.3,0,0,3.51,2.76-4.26,13.78,0,0-5.76,3.01,5.26,11.53,0,0,6.77,14.04-14.29,7.27,0,0-7.77-4.01-3.26-8.77,0,0,5.76-5.51-3.01-9.02,0,0,6.52-27.32,3.76-27.32,0,0,6.77.5,7.02-8.02l-5.26-3.01,5.26-19.55Z"/>
  <path class="cls-1" d="M9.93,155.38s26.69,6.52,29.2,13.03,10.53,11.53,10.53,11.53v-8.52s-10.53-10.03,0-5.51-2.51-5.51-2.51-5.51c0,0-12.53-11.03-32.58-9.52,0,0-5.26,1-4.64,4.51Z"/>
  <path class="cls-1" d="M2.03,65.15s-1.5,14.04,17.04,6.02c0,0,2.15-8.52-9.2-8.02,0,0-4.89-8.52-7.87-5.51l.03,7.52Z"/>
  <path class="cls-1" d="M48.65,15.52s-7.52-5.01-7.52,12.53c0,0,6.71,23.56,12.63,17.54,0,0,1.41-2.04,8.93.98,0,0,12.03-2.99,0-7.5,0,0-2.31-9.2-8.93-8.36,0,0-8.62-3.67-5.11-8.18,0,0,8.02-4.51,0-7.02Z"/>
</svg>